<svg aria-hidden="true" style="position: absolute; width: 0; height: 0; overflow: hidden;" version="1.1" xmlns="http://www.w3.org/2000/svg" xmlns:xlink="http://www.w3.org/1999/xlink">
<defs>
<symbol id="icon-tel" viewBox="0 0 32 32">
<path fill="#757575" style="fill: var(--color1, #757575)" d="M23 0h-14c-1.654 0-3 1.346-3 3v26c0 1.654 1.346 3 3 3h14c1.654 0 3-1.346 3-3v-26c0-1.654-1.346-3-3-3zM9 2h14c0.552 0 1 0.448 1 1v0 21h-16v-21c0-0.552 0.448-1 1-1v0zM23 30h-14c-0.552 0-1-0.448-1-1v0-3h16v3c0 0.552-0.448 1-1 1v0z"></path>
</symbol>
<symbol id="icon-linkedin" viewBox="0 0 32 32">
<path fill="#afb1b8" style="fill: var(--color2, #afb1b8)" d="M32 32v-11.744c0-5.728-1.232-10.16-7.952-10.16-0.076-0.003-0.166-0.005-0.256-0.005-2.555 0-4.788 1.376-5.999 3.428l-0.018 0.032h-0.096v-2.912h-6.368v21.36h6.64v-10.576c0-2.784 0.528-5.488 3.968-5.488 3.408 0 3.456 3.184 3.456 5.664v10.4h6.624zM0.528 10.64h6.64v21.36h-6.64v-21.36zM3.84 0c-2.121 0-3.84 1.719-3.84 3.84v0c-0 0.005-0 0.010-0 0.016 0 2.127 1.715 3.854 3.838 3.872h0.002c2.128 0 3.84-1.76 3.84-3.888 0-2.121-1.719-3.84-3.84-3.84v0z"></path>
</symbol>
<symbol id="icon-instagram" viewBox="0 0 32 32">
<path fill="#afb1b8" style="fill: var(--color2, #afb1b8)" d="M31.968 9.408c-0.024-1.403-0.292-2.735-0.763-3.968l0.027 0.080c-0.427-1.109-1.058-2.054-1.854-2.83l-0.002-0.002c-0.8-0.8-1.76-1.44-2.832-1.84-1.151-0.448-2.483-0.721-3.875-0.752l-0.013-0c-1.458-0.070-3.167-0.109-4.885-0.109-0.6 0-1.199 0.005-1.797 0.014l0.090-0.001c-4.352 0-4.896 0.016-6.592 0.096-1.712 0.064-2.88 0.352-3.888 0.736-1.072 0.416-2.032 1.040-2.832 1.856-0.816 0.8-1.44 1.76-1.856 2.832-0.443 1.152-0.711 2.485-0.736 3.877l-0 0.011c-0.070 1.458-0.109 3.167-0.109 4.885 0 0.6 0.005 1.199 0.014 1.797l-0.001-0.090c0 4.352 0 4.896 0.080 6.592 0.030 1.405 0.303 2.737 0.779 3.968l-0.027-0.080c0.4 1.072 1.040 2.032 1.856 2.832 0.8 0.816 1.76 1.44 2.832 1.856 1.008 0.384 2.176 0.656 3.872 0.736 1.712 0.080 2.24 0.096 6.592 0.096s4.896-0.016 6.608-0.096c1.397-0.026 2.724-0.294 3.952-0.763l-0.080 0.027c2.16-0.851 3.837-2.528 4.669-4.633l0.019-0.055c0.384-1.024 0.672-2.176 0.736-3.888 0.080-1.696 0.096-2.24 0.096-6.592 0-4.336 0-4.88-0.080-6.592zM29.088 22.48c-0.064 1.552-0.32 2.4-0.544 2.96-0.552 1.401-1.639 2.488-3.004 3.027l-0.036 0.013c-0.56 0.224-1.424 0.48-2.976 0.544-1.68 0.080-2.192 0.096-6.464 0.096-0.465 0.007-1.013 0.011-1.562 0.011-1.724 0-3.439-0.039-5.144-0.116l0.242 0.009c-1.568-0.064-2.4-0.32-2.96-0.544-0.722-0.271-1.337-0.68-1.839-1.199l-0.001-0.001c-0.518-0.5-0.926-1.108-1.189-1.79l-0.011-0.034c-0.336-0.884-0.535-1.905-0.544-2.972l-0-0.004c-0.068-1.463-0.107-3.179-0.107-4.903 0-0.549 0.004-1.097 0.012-1.643l-0.001 0.083c0-4.272 0.016-4.784 0.096-6.464 0.064-1.568 0.32-2.4 0.544-2.976 0.256-0.688 0.656-1.312 1.2-1.824 0.504-0.519 1.118-0.928 1.806-1.189l0.034-0.011c0.56-0.224 1.408-0.48 2.976-0.544 1.68-0.080 2.192-0.096 6.448-0.096 4.288 0 4.8 0 6.464 0.096 1.568 0.064 2.4 0.32 2.976 0.544 0.688 0.256 1.328 0.656 1.84 1.2 0.528 0.512 0.944 1.136 1.2 1.824 0.208 0.576 0.48 1.424 0.544 2.976 0.080 1.68 0.096 2.192 0.096 6.464s-0.016 4.768-0.096 6.464z"></path>
<path fill="#afb1b8" style="fill: var(--color2, #afb1b8)" d="M16.064 7.776c-4.542 0-8.224 3.682-8.224 8.224s3.682 8.224 8.224 8.224v0c4.542 0 8.224-3.682 8.224-8.224s-3.682-8.224-8.224-8.224v0zM16.064 21.328c-2.943 0-5.328-2.385-5.328-5.328s2.385-5.328 5.328-5.328v0c2.943 0 5.328 2.385 5.328 5.328s-2.385 5.328-5.328 5.328v0zM26.528 7.456c0 1.060-0.86 1.92-1.92 1.92s-1.92-0.86-1.92-1.92v0c0-1.060 0.86-1.92 1.92-1.92s1.92 0.86 1.92 1.92v0z"></path>
</symbol>
<symbol id="icon-company6" viewBox="0 0 32 32">
<path fill="#afb1b8" style="fill: var(--color2, #afb1b8)" d="M16.143 15.626c-0.129-0.167-0.206-0.379-0.206-0.61 0-0.023 0.001-0.045 0.002-0.067l-0 0.003v-0.98c0-0.303 0.068-0.531 0.204-0.688s0.374-0.235 0.705-0.232c0.31 0 0.534 0.068 0.664 0.197 0.143 0.17 0.211 0.378 0.197 0.589v0.228h-0.558v-0.232c0-0.078-0.003-0.153-0.017-0.228-0.009-0.055-0.038-0.103-0.078-0.136l-0-0c-0.051-0.035-0.113-0.055-0.181-0.055-0.008 0-0.016 0-0.024 0.001l0.001-0c-0.006-0-0.013-0.001-0.020-0.001-0.071 0-0.137 0.022-0.192 0.059l0.001-0.001c-0.047 0.037-0.081 0.089-0.095 0.148l-0 0.002c-0.014 0.078-0.020 0.16-0.020 0.238v1.191c-0.010 0.119 0.017 0.232 0.072 0.337 0.027 0.034 0.068 0.065 0.112 0.082 0.032 0.012 0.068 0.019 0.107 0.019 0.013 0 0.025-0.001 0.038-0.002l-0.001 0c0.008 0.001 0.017 0.001 0.026 0.001 0.064 0 0.123-0.020 0.172-0.053l-0.001 0.001c0.044-0.036 0.075-0.087 0.085-0.145l0-0.001c0.010-0.078 0.017-0.16 0.017-0.238v-0.245h0.558v0.221c0.014 0.218-0.054 0.436-0.194 0.616-0.129 0.146-0.347 0.218-0.667 0.218-0.323 0-0.565-0.078-0.705-0.238zM18.471 15.639c-0.143-0.153-0.211-0.374-0.211-0.671v-1.031c0-0.293 0.068-0.511 0.211-0.664 0.14-0.15 0.374-0.225 0.708-0.221 0.327 0 0.562 0.072 0.701 0.221 0.143 0.15 0.214 0.371 0.214 0.664v1.031c0 0.293-0.072 0.514-0.214 0.667-0.143 0.157-0.374 0.232-0.701 0.232s-0.569-0.078-0.708-0.228zM19.438 15.391c0.051-0.095 0.075-0.201 0.068-0.306v-1.263c0.007-0.102-0.017-0.204-0.068-0.3-0.029-0.036-0.067-0.064-0.111-0.081l-0.002-0.001c-0.032-0.012-0.069-0.020-0.108-0.020-0.014 0-0.027 0.001-0.040 0.003l0.002-0c-0.012-0.002-0.026-0.003-0.041-0.003-0.039 0-0.077 0.007-0.111 0.020l0.002-0.001c-0.047 0.017-0.086 0.045-0.115 0.081l-0 0c-0.048 0.092-0.072 0.197-0.068 0.3v1.27c-0.003 0.102 0.017 0.211 0.068 0.306 0.070 0.063 0.162 0.101 0.264 0.101 0.051 0 0.099-0.010 0.144-0.027l-0.003 0.001c0.048-0.017 0.085-0.044 0.119-0.075v-0.007zM20.766 13.079h0.603l0.453 1.906 0.463-1.906h0.586l0.058 2.751h-0.432l-0.048-1.91-0.443 1.91h-0.354l-0.463-1.917-0.041 1.917h-0.439l0.054-2.751zM23.602 13.079h0.936c0.541 0 0.81 0.262 0.81 0.783 0 0.497-0.283 0.749-0.851 0.749h-0.32v1.219h-0.579l0.003-2.751zM24.402 14.257c0.058 0.003 0.116 0 0.17-0.014 0.054-0.017 0.106-0.041 0.15-0.075 0.065-0.092 0.095-0.204 0.082-0.31 0-0.085-0.007-0.17-0.027-0.252-0.010-0.029-0.025-0.054-0.044-0.075l0 0c-0.020-0.022-0.044-0.040-0.070-0.054l-0.001-0.001c-0.082-0.034-0.17-0.048-0.259-0.044h-0.225v0.824h0.225zM26.179 13.079h0.623l0.64 2.751h-0.541l-0.126-0.633h-0.555l-0.129 0.633h-0.545l0.637-2.751zM26.713 14.877l-0.218-1.154-0.214 1.157h0.432zM27.956 13.079h0.405l0.773 1.569v-1.566h0.483v2.747h-0.385l-0.78-1.634v1.634h-0.497v-2.751zM30.74 14.781l-0.647-1.699h0.545l0.392 1.089 0.368-1.089h0.531l-0.633 1.702v1.045h-0.558v-1.049zM17.038 17.032v0.143h-0.473v1.12h-0.197v-1.12h-0.477v-0.143h1.147zM18.519 18.294h-0.157c-0.015 0-0.030-0.005-0.041-0.014l0 0c-0.012-0.006-0.021-0.016-0.027-0.027l-0-0-0.136-0.3h-0.654l-0.136 0.3c-0.004 0.013-0.011 0.025-0.020 0.034v0c-0.010 0.007-0.023 0.011-0.037 0.011-0.003 0-0.005-0-0.008-0l0 0h-0.153l0.579-1.26h0.204l0.582 1.256zM17.559 17.825h0.545l-0.232-0.511c-0.014-0.033-0.028-0.074-0.039-0.116l-0.001-0.006-0.024 0.068-0.020 0.054-0.228 0.511zM19.513 18.169h0.109c0.064-0.003 0.125-0.016 0.182-0.035l-0.005 0.001 0.075-0.034v-0.283h-0.232c-0 0-0.001 0-0.001 0-0.011 0-0.021-0.004-0.030-0.010l0 0c-0.003-0.003-0.005-0.006-0.007-0.010l-0-0-0.003-0.014v-0.095h0.449v0.483c-0.111 0.069-0.243 0.114-0.385 0.126l-0.003 0c-0.058 0.007-0.112 0.010-0.17 0.010-0.102 0-0.197-0.017-0.293-0.048-0.089-0.031-0.166-0.076-0.232-0.134l0.001 0.001c-0.061-0.054-0.11-0.12-0.145-0.194l-0.002-0.004c-0.037-0.085-0.054-0.174-0.054-0.262-0-0.006-0-0.014-0-0.021 0-0.177 0.079-0.335 0.204-0.441l0.001-0.001c0.061-0.058 0.143-0.102 0.228-0.133 0.090-0.031 0.195-0.049 0.303-0.049 0.059 0 0.117 0.005 0.173 0.015l-0.006-0.001c0.095 0.014 0.181 0.042 0.26 0.084l-0.004-0.002c0.034 0.017 0.068 0.041 0.102 0.065l-0.058 0.078c-0.005 0.007-0.012 0.013-0.020 0.017l-0 0c-0.007 0.004-0.015 0.006-0.024 0.007h-0c-0.013-0.001-0.024-0.004-0.034-0.010l0 0c-0.020-0.007-0.037-0.017-0.058-0.031-0.092-0.045-0.2-0.072-0.314-0.072-0.006 0-0.011 0-0.017 0h0.001c-0.003-0-0.008-0-0.012-0-0.076 0-0.149 0.012-0.218 0.036l0.005-0.001c-0.068 0.024-0.123 0.058-0.17 0.102-0.046 0.042-0.083 0.093-0.108 0.15l-0.001 0.003c-0.051 0.136-0.051 0.286 0 0.422 0.080 0.171 0.251 0.287 0.448 0.287 0.022 0 0.044-0.001 0.065-0.004l-0.003 0zM21.358 18.148h0.63v0.146h-0.824v-1.26h0.197l-0.003 1.113zM22.645 18.294h-0.197v-1.26h0.197v1.26zM23.38 17.038c0.014 0.007 0.024 0.014 0.031 0.024l0.844 0.95v-0.984h0.17v1.266h-0.095c-0.017 0-0.031 0-0.044-0.007-0.012-0.006-0.022-0.014-0.031-0.024l-0-0-0.844-0.953v0.984h-0.167v-1.26h0.136zM25.886 17.032v0.136h-0.701v0.419h0.569v0.136h-0.569v0.429h0.701v0.136h-0.906v-1.256h0.906zM5.161 9.246l8.783 2.152v7.544l-8.783-2.151v-7.544zM4.599 8.599v8.558l9.906 2.431v-8.558l-9.91-2.427z"></path>
<path fill="#afb1b8" style="fill: var(--color2, #afb1b8)" d="M9.906 23.557l-9.906-2.437v-8.548l9.906 2.431v8.552z"></path>
<path fill="#afb1b8" style="fill: var(--color2, #afb1b8)" d="M4.763 9.147l8.667 2.128-3.687 3.18-8.667-2.124 3.687-3.183zM4.599 8.603l-4.599 3.969 9.906 2.431 4.596-3.973-9.906-2.427zM10.465 23.074l4.041-3.489-4.041-0.991v4.48z"></path>
</symbol>
<symbol id="icon-company5" viewBox="0 0 32 32">
<path fill="#afb1b8" style="fill: var(--color2, #afb1b8)" d="M2.418 23.741c0.122 0.137 0.188 0.315 0.183 0.493 0.010 0.117-0.015 0.234-0.066 0.345-0.051 0.107-0.122 0.203-0.218 0.284-0.244 0.163-0.538 0.244-0.843 0.229h-1.473v-3.149h1.443c0.024-0.002 0.051-0.002 0.079-0.002 0.269 0 0.519 0.081 0.728 0.219l-0.005-0.003c0.091 0.071 0.168 0.163 0.213 0.264 0.051 0.102 0.071 0.213 0.066 0.325 0.010 0.173-0.051 0.34-0.168 0.477-0.112 0.127-0.264 0.213-0.437 0.249 0.193 0.030 0.371 0.127 0.498 0.269zM0.691 23.264h0.61c0.142 0.010 0.284-0.025 0.396-0.102 0.051-0.041 0.081-0.086 0.102-0.142 0.025-0.051 0.036-0.112 0.030-0.168 0.001-0.010 0.001-0.021 0.001-0.032 0-0.049-0.010-0.095-0.028-0.138l0.001 0.002c-0.024-0.054-0.059-0.1-0.101-0.137l-0-0c-0.1-0.068-0.223-0.109-0.355-0.109-0.018 0-0.036 0.001-0.053 0.002l0.002-0h-0.61v0.823zM1.757 24.472c0.051-0.041 0.086-0.091 0.112-0.147 0.025-0.051 0.036-0.117 0.036-0.173 0-0.006 0-0.013 0-0.019 0-0.058-0.013-0.112-0.037-0.161l0.001 0.002c-0.028-0.059-0.067-0.108-0.116-0.147l-0.001-0.001c-0.106-0.071-0.236-0.113-0.376-0.113-0.014 0-0.029 0-0.043 0.001l0.002-0h-0.65v0.863h0.66c0.142 0.010 0.29-0.030 0.406-0.112zM5.369 25.092l-0.797-1.229h-0.305v1.229h-0.696v-3.149h1.31c0.028-0.002 0.061-0.003 0.094-0.003 0.309 0 0.595 0.102 0.824 0.275l-0.003-0.003c0.193 0.174 0.314 0.424 0.314 0.703 0 0.227-0.080 0.436-0.214 0.599l0.001-0.002c-0.168 0.173-0.391 0.284-0.63 0.32l0.853 1.26h-0.752zM4.267 23.431h0.569c0.391 0 0.589-0.152 0.589-0.472 0-0.006 0-0.013 0-0.020 0-0.062-0.013-0.122-0.037-0.175l0.001 0.003c-0.027-0.064-0.064-0.118-0.112-0.162l-0-0c-0.107-0.081-0.242-0.129-0.389-0.129-0.019 0-0.037 0.001-0.055 0.002l0.002-0h-0.579l0.005 0.955zM9.148 24.457h-1.377l-0.244 0.635h-0.726l1.27-3.114h0.782l1.26 3.114h-0.726l-0.244-0.635zM8.965 23.98l-0.508-1.326-0.503 1.326h1.011zM13.877 25.092h-0.686l-1.539-2.138v2.133h-0.681v-3.139h0.686l1.539 2.149v-2.149h0.686v3.144zM17.793 24.335c-0.142 0.239-0.356 0.432-0.62 0.559-0.3 0.137-0.63 0.203-0.965 0.198h-1.219v-3.149h1.219c0.335-0.005 0.665 0.061 0.965 0.198 0.264 0.122 0.477 0.31 0.62 0.549 0.134 0.237 0.212 0.521 0.212 0.823s-0.079 0.586-0.217 0.831l0.004-0.009zM17.011 24.264c0.193-0.208 0.305-0.477 0.305-0.752s-0.112-0.544-0.305-0.752c-0.212-0.167-0.483-0.267-0.777-0.267-0.030 0-0.060 0.001-0.090 0.003l0.004-0h-0.472v2.032h0.477c0.31 0.020 0.62-0.076 0.858-0.264zM9.58 4.455s8.853 3.058 8.665 7.492v7.492s-8.848-3.063-8.665-7.492v-7.492zM26.138 17.686c1.605-1.019 3.52-1.699 5.576-1.896l0.052-0.004v-2.347c-2.329 0.817-4.254 2.296-5.604 4.21l-0.024 0.036z"></path>
<path fill="#afb1b8" style="fill: var(--color2, #afb1b8)" d="M25.133 18.387c1.454-2.563 3.772-4.492 6.551-5.411l0.083-0.024v-6.771s-12.617 4.373-12.348 10.682v10.667s0.559-0.193 1.448-0.559c0-0.345 0-0.686 0.041-1.031 0.315-3.093 1.892-5.765 4.2-7.529l0.026-0.019z"></path>
<path fill="#afb1b8" style="fill: var(--color2, #afb1b8)" d="M23.934 22.354c0.066-0.736 0.213-1.473 0.442-2.184-1.589 1.689-2.591 3.945-2.671 6.435l-0 0.016c0.716-0.32 1.549-0.711 2.428-1.173-0.224-1.016-0.29-2.057-0.198-3.093zM24.432 22.395c-0.081 0.935-0.025 1.879 0.157 2.794 3.449-1.884 7.319-4.8 7.172-8.33v-0.305c-2.531 0.252-4.787 1.27-6.572 2.816l0.015-0.013c-0.395 0.888-0.668 1.919-0.764 3l-0.003 0.038z"></path>
</symbol>
<symbol id="icon-company4" viewBox="0 0 32 32">
<path fill="#2196f3" style="fill: var(--color3, #2196f3)" d="M4.951 13.026c-0.904 0-1.638 0.651-1.638 1.453 0 0.806 0.734 1.453 1.634 1.453 0.904 0 1.638-0.648 1.638-1.453 0-0.802-0.734-1.453-1.634-1.453zM17.016 12.563c-0.004-1.114-0.504-2.184-1.393-2.974-0.881-0.765-2.039-1.231-3.307-1.231-0.010 0-0.020 0-0.030 0h0.002c-1.254 0-2.458 0.444-3.343 1.235-0.841 0.724-1.375 1.783-1.393 2.967l-0 0.003v6.144s9.464-0.937 9.464-6.144zM0 20.725c0 0.776 0.35 1.517 0.968 2.067 0.614 0.533 1.421 0.858 2.304 0.858 0.007 0 0.014-0 0.020-0h-0.001c0.873 0 1.709-0.309 2.327-0.858 0.584-0.504 0.955-1.241 0.968-2.065l0-0.002v-4.273s-6.584 0.651-6.584 4.273zM3.29 21.489c-0.169 0-0.339-0.041-0.478-0.128-0.137-0.081-0.246-0.198-0.314-0.338l-0.002-0.005c-0.041-0.086-0.066-0.187-0.066-0.293 0-0.053 0.006-0.105 0.018-0.155l-0.001 0.005c0.034-0.151 0.113-0.282 0.237-0.392 0.12-0.106 0.27-0.18 0.435-0.21l0.006-0.001c0.166-0.026 0.339-0.011 0.497 0.045s0.294 0.154 0.388 0.282c0.090 0.117 0.144 0.266 0.144 0.428 0 0.216-0.096 0.409-0.249 0.539l-0.001 0.001c-0.083 0.075-0.177 0.128-0.282 0.169-0.105 0.038-0.215 0.056-0.331 0.056zM9.946 21.067h-0.636v0.659h-0.331v-1.608h1.047v0.267h-0.715v0.414h0.636v0.267zM11.535 20.958c0 0.158-0.026 0.297-0.083 0.414-0.1 0.224-0.32 0.377-0.576 0.377-0.008 0-0.016-0-0.024-0l0.001 0c-0.007 0-0.015 0-0.022 0-0.255 0-0.476-0.149-0.578-0.365l-0.002-0.004c-0.053-0.114-0.083-0.247-0.083-0.388 0-0.009 0-0.019 0-0.028l-0 0.001v-0.072c0-0.162 0.026-0.301 0.083-0.418 0.103-0.224 0.325-0.377 0.583-0.377 0.007 0 0.013 0 0.020 0l-0.001-0c0.132 0 0.252 0.034 0.354 0.098 0.105 0.064 0.188 0.158 0.241 0.279 0.060 0.117 0.087 0.256 0.087 0.414v0.075zM11.2 20.883c0-0.166-0.030-0.294-0.090-0.38-0.053-0.080-0.143-0.132-0.245-0.132-0.004 0-0.008 0-0.011 0l0.001-0c-0.113 0-0.2 0.041-0.26 0.128s-0.090 0.215-0.090 0.38v0.079c0 0.166 0.030 0.29 0.090 0.38s0.151 0.136 0.264 0.136c0.109 0 0.192-0.041 0.252-0.128s0.090-0.215 0.090-0.38v-0.079zM12.608 21.304c0-0.064-0.023-0.113-0.064-0.143-0.069-0.045-0.149-0.081-0.235-0.104l-0.006-0.001c-0.113-0.038-0.203-0.075-0.271-0.113-0.181-0.098-0.275-0.23-0.275-0.395 0-0.090 0.026-0.166 0.075-0.233s0.117-0.12 0.211-0.162c0.090-0.038 0.192-0.056 0.309-0.056 0.113 0 0.215 0.023 0.305 0.064 0.090 0.038 0.158 0.098 0.211 0.177 0.049 0.075 0.075 0.162 0.075 0.256h-0.331c0-0.075-0.026-0.132-0.072-0.169-0.048-0.040-0.111-0.064-0.18-0.064-0.006 0-0.011 0-0.017 0l0.001-0c-0.005-0-0.011-0-0.017-0-0.064 0-0.123 0.020-0.172 0.054l0.001-0.001c-0.041 0.030-0.068 0.078-0.068 0.132 0 0.001 0 0.003 0 0.004v-0c0 0.053 0.026 0.094 0.079 0.132 0.053 0.034 0.132 0.068 0.233 0.098 0.188 0.056 0.324 0.128 0.414 0.211 0.083 0.083 0.124 0.188 0.124 0.312 0 0.139-0.049 0.248-0.154 0.328s-0.248 0.12-0.425 0.12c-0.003 0-0.007 0-0.011 0-0.119 0-0.232-0.025-0.334-0.070l0.005 0.002c-0.184-0.069-0.313-0.244-0.313-0.449 0-0.004 0-0.008 0-0.011v0.001h0.331c0 0.177 0.109 0.264 0.32 0.264 0.075 0 0.139-0.015 0.184-0.045 0.041-0.038 0.064-0.079 0.064-0.136zM14.377 20.386h-0.493v1.34h-0.331v-1.34h-0.489v-0.264h1.31v0.264zM15.529 21.026h-0.632v0.433h0.745v0.264h-1.077v-1.604h1.073v0.267h-0.742v0.384h0.632v0.26zM16.433 21.139h-0.264v0.587h-0.335v-1.608h0.599c0.188 0 0.335 0.041 0.437 0.128 0.105 0.083 0.154 0.203 0.154 0.358 0 0.113-0.023 0.2-0.072 0.275-0.045 0.075-0.117 0.132-0.215 0.173l0.346 0.659v0.015h-0.354l-0.301-0.587zM16.169 20.868h0.264c0.083 0 0.151-0.019 0.192-0.060s0.068-0.098 0.068-0.162c0-0.005-0-0.011-0.001-0.016l0 0.001c0-0.075-0.019-0.136-0.064-0.177-0.041-0.045-0.109-0.068-0.196-0.068h-0.264v0.482zM18.172 21.158v0.565h-0.331v-1.604h0.625c0.12 0 0.226 0.023 0.32 0.068 0.090 0.041 0.162 0.105 0.211 0.188 0.049 0.079 0.075 0.173 0.075 0.275 0 0.158-0.056 0.282-0.166 0.376-0.105 0.087-0.256 0.132-0.444 0.132h-0.29zM18.172 20.894h0.294c0.087 0 0.154-0.023 0.2-0.064 0.049-0.041 0.072-0.102 0.072-0.177 0-0.002 0-0.005 0-0.008 0-0.070-0.027-0.134-0.072-0.181l0 0c-0.047-0.047-0.112-0.075-0.183-0.075-0.002 0-0.004 0-0.006 0h-0.305v0.501zM20.265 21.030h-0.636v0.429h0.745v0.264h-1.077v-1.604h1.073v0.267h-0.742v0.384h0.636v0.26zM21.801 20.39h-0.493v1.336h-0.331v-1.34h-0.486v-0.264h1.31v0.264zM22.957 21.030h-0.64v0.429h0.749v0.264h-1.080v-1.604h1.073v0.267h-0.734v0.384h0.636v0.26zM23.853 21.139h-0.264v0.587h-0.331v-1.608h0.599c0.188 0 0.339 0.041 0.44 0.128 0.102 0.083 0.151 0.203 0.151 0.358 0 0.113-0.023 0.2-0.068 0.275-0.049 0.075-0.12 0.132-0.218 0.173l0.35 0.659v0.015h-0.358l-0.301-0.587zM23.59 20.868h0.267c0.083 0 0.151-0.019 0.196-0.060 0.042-0.041 0.068-0.098 0.068-0.162 0-0.005-0-0.011-0.001-0.016l0 0.001c0-0.075-0.023-0.136-0.068-0.177-0.038-0.045-0.105-0.068-0.196-0.068h-0.264v0.482zM25.536 21.304c0-0.064-0.023-0.113-0.068-0.143-0.068-0.045-0.147-0.081-0.231-0.104l-0.006-0.001c-0.113-0.038-0.207-0.075-0.271-0.113-0.184-0.098-0.275-0.23-0.275-0.395 0-0.090 0.023-0.166 0.075-0.233 0.045-0.068 0.117-0.12 0.207-0.162 0.094-0.038 0.196-0.056 0.309-0.056s0.218 0.023 0.309 0.064c0.090 0.038 0.158 0.098 0.207 0.177 0.049 0.075 0.075 0.162 0.075 0.256h-0.331c0-0.075-0.023-0.132-0.068-0.169-0.048-0.040-0.111-0.064-0.18-0.064-0.006 0-0.011 0-0.017 0l0.001-0c-0.005-0-0.011-0-0.017-0-0.064 0-0.123 0.020-0.172 0.054l0.001-0.001c-0.041 0.030-0.068 0.078-0.068 0.132 0 0.001 0 0.003 0 0.004v-0c0 0.053 0.026 0.094 0.075 0.132 0.056 0.034 0.132 0.068 0.237 0.098 0.188 0.056 0.324 0.128 0.41 0.211s0.128 0.188 0.128 0.312c0 0.139-0.053 0.248-0.158 0.328s-0.245 0.12-0.425 0.12c-0.003 0-0.007 0-0.011 0-0.119 0-0.232-0.025-0.334-0.070l0.005 0.002c-0.184-0.069-0.313-0.244-0.313-0.449 0-0.004 0-0.008 0-0.011v0.001h0.335c0 0.177 0.105 0.264 0.316 0.264 0.079 0 0.143-0.015 0.188-0.045 0.041-0.038 0.064-0.079 0.064-0.136z"></path>
</symbol>
<symbol id="icon-company3" viewBox="0 0 32 32">
<path fill="#afb1b8" style="fill: var(--color2, #afb1b8)" d="M5.262 30.293l0.036 0.007 0.028 0.014 0.156 0.149c-0.121 0.121-0.27 0.213-0.434 0.284-0.199 0.071-0.412 0.107-0.619 0.1-0.199 0-0.398-0.028-0.583-0.092-0.328-0.113-0.586-0.357-0.715-0.668l-0.003-0.008c-0.067-0.156-0.106-0.339-0.106-0.53s0.039-0.373 0.11-0.539l-0.003 0.009c0.071-0.149 0.171-0.292 0.306-0.412 0.128-0.114 0.284-0.206 0.462-0.263 0.179-0.065 0.385-0.102 0.601-0.102 0.2 0 0.392 0.032 0.571 0.091l-0.013-0.004c0.149 0.057 0.292 0.142 0.412 0.242l-0.128 0.156c-0.010 0.011-0.022 0.021-0.035 0.028l-0.001 0c-0.014 0.009-0.031 0.014-0.049 0.014-0 0-0 0-0.001 0h0c-0.021-0.003-0.041-0.010-0.057-0.022l0 0-0.071-0.043-0.092-0.050c-0.143-0.072-0.311-0.115-0.49-0.115-0.018 0-0.035 0-0.053 0.001l0.002-0c-0.142 0-0.292 0.021-0.427 0.071-0.253 0.087-0.452 0.274-0.552 0.513l-0.002 0.006c-0.053 0.122-0.085 0.263-0.085 0.412v0c0 0.142 0.028 0.292 0.078 0.427 0.098 0.242 0.292 0.427 0.534 0.51l0.006 0.002c0.128 0.043 0.263 0.071 0.398 0.071l0.235-0.014c0.198-0.021 0.373-0.101 0.513-0.221l-0.001 0.001c0.019-0.016 0.044-0.027 0.071-0.028l0-0zM9.742 29.547c0 0.185-0.028 0.356-0.1 0.526-0.071 0.149-0.164 0.284-0.292 0.405-0.135 0.121-0.284 0.213-0.462 0.27-0.377 0.128-0.796 0.128-1.18 0-0.176-0.063-0.327-0.155-0.456-0.271l0.001 0.001c-0.123-0.113-0.222-0.25-0.289-0.405l-0.003-0.008c-0.142-0.334-0.142-0.711 0-1.045 0.071-0.156 0.164-0.292 0.292-0.412 0.135-0.114 0.284-0.199 0.455-0.263 0.176-0.061 0.379-0.096 0.59-0.096s0.414 0.035 0.603 0.1l-0.013-0.004c0.171 0.064 0.327 0.156 0.462 0.27 0.241 0.222 0.392 0.539 0.392 0.891 0 0.014-0 0.029-0.001 0.043l0-0.002zM9.337 29.547c0-0.142-0.021-0.284-0.071-0.42-0.094-0.242-0.287-0.427-0.527-0.51l-0.006-0.002c-0.127-0.043-0.274-0.068-0.427-0.068s-0.299 0.025-0.436 0.071l0.010-0.003c-0.13 0.045-0.241 0.113-0.335 0.2l0.001-0c-0.092 0.085-0.164 0.19-0.211 0.307l-0.002 0.006c-0.092 0.277-0.092 0.569 0 0.846 0.094 0.244 0.29 0.431 0.534 0.51l0.006 0.002c0.277 0.085 0.583 0.085 0.853 0 0.128-0.050 0.242-0.114 0.334-0.199 0.092-0.092 0.164-0.199 0.206-0.313 0.050-0.142 0.071-0.284 0.071-0.427zM12.8 29.988l0.043 0.1 0.043-0.1 0.050-0.092 0.996-1.564c0.014-0.021 0.036-0.043 0.050-0.043 0.025-0.009 0.055-0.014 0.085-0.014v0h0.292v2.546h-0.348v-2.034l-0.996 1.586c-0.013 0.024-0.033 0.044-0.056 0.057l-0.001 0c-0.024 0.013-0.053 0.021-0.084 0.021-0 0-0.001 0-0.001 0h-0.057c-0.001 0-0.002 0-0.003 0-0.030 0-0.059-0.008-0.084-0.022l0.001 0c-0.024-0.013-0.044-0.033-0.057-0.056l-0-0.001-1.024-1.6v2.048h-0.341v-2.546h0.299c0.028 0 0.050 0 0.078 0.014 0.021 0.007 0.043 0.021 0.057 0.043l1.010 1.564 0.050 0.092zM16.526 29.867v0.953h-0.384v-2.546h0.86c0.164 0 0.327 0.021 0.484 0.057 0.128 0.028 0.242 0.085 0.341 0.156 0.085 0.071 0.156 0.156 0.199 0.249 0.043 0.107 0.071 0.213 0.064 0.327 0 0.002 0 0.005 0 0.007 0 0.232-0.111 0.438-0.283 0.568l-0.002 0.001c-0.1 0.078-0.213 0.142-0.341 0.171-0.136 0.041-0.292 0.064-0.453 0.064-0.006 0-0.011-0-0.017-0h0.001l-0.469-0.007zM16.526 29.589h0.469c0.107 0 0.206-0.007 0.306-0.036 0.082-0.026 0.153-0.065 0.215-0.115l-0.001 0.001c0.109-0.091 0.178-0.226 0.178-0.378 0-0.002 0-0.004-0-0.006v0c0.001-0.008 0.001-0.017 0.001-0.027 0-0.062-0.013-0.122-0.037-0.175l0.001 0.003c-0.034-0.071-0.082-0.131-0.141-0.177l-0.001-0.001c-0.142-0.1-0.327-0.142-0.519-0.135h-0.469v1.045zM21.739 30.82h-0.306c-0.003 0-0.006 0-0.010 0-0.028 0-0.054-0.008-0.076-0.022l0.001 0c-0.021-0.015-0.038-0.034-0.049-0.056l-0-0.001-0.263-0.619h-1.323l-0.277 0.619c-0.022 0.051-0.072 0.086-0.131 0.086-0.004 0-0.008-0-0.012-0l0.001 0h-0.299l1.166-2.553h0.405l1.173 2.546zM19.819 29.874h1.095l-0.462-1.031c-0.030-0.067-0.060-0.147-0.083-0.23l-0.003-0.012-0.043 0.135-0.043 0.107-0.462 1.031zM23.417 28.288l0.057 0.043 1.7 1.92v-1.977h0.341v2.546h-0.192c-0.028 0-0.057 0-0.078-0.014-0.025-0.013-0.046-0.030-0.064-0.050l-0-0-1.692-1.92v1.984h-0.348v-2.546h0.213c0.014 0 0.043 0 0.064 0.014zM28.373 29.81v1.010h-0.384v-1.010l-1.074-1.536h0.348c0.003-0 0.006-0 0.010-0 0.028 0 0.054 0.008 0.076 0.022l-0.001-0 0.050 0.057 0.668 0.996c0.042 0.063 0.083 0.135 0.117 0.211l0.004 0.010 0.050-0.107 0.071-0.114 0.654-0.996c0.014-0.022 0.031-0.040 0.049-0.057l0-0c0.022-0.018 0.050-0.029 0.081-0.029 0.002 0 0.003 0 0.005 0h0.355l-1.081 1.543zM12.608 24.007l0.512 0.043c2.596-0.995 4.753-2.645 6.338-4.75l0.026-0.036c1.413-1.884 2.263-4.261 2.263-6.836 0-0.072-0.001-0.143-0.002-0.215l0 0.011-2.887-2.503c0.59 2.652 0.313 5.39-0.789 7.915-1.21 2.644-3.081 4.807-5.405 6.337l-0.056 0.035z"></path>
<path fill="#afb1b8" style="fill: var(--color2, #afb1b8)" d="M11.577 23.893l0.078 0.007c2.631-1.636 4.644-3.918 5.76-6.564 0.637-1.438 1.008-3.116 1.008-4.881 0-1.197-0.171-2.354-0.489-3.448l0.022 0.087-4.11-3.563c1.281 2.19 2.037 4.822 2.037 7.63 0 0.644-0.040 1.279-0.117 1.902l0.008-0.075c-0.468 3.472-1.98 6.526-4.204 8.905l0.009-0.009zM25.508 15.168c-0.799 2.902-2.51 5.326-4.8 7.008l-0.036 0.025c-0.711 0.54-1.479 1.017-2.29 1.429 1.984-0.505 3.812-1.401 5.333-2.617 1.47-1.165 2.642-2.642 3.426-4.336l0.030-0.073-1.664-1.436z"></path>
<path fill="#afb1b8" style="fill: var(--color2, #afb1b8)" d="M24.853 14.763l-2.375-2.062c-0.063 2.502-0.888 4.8-2.25 6.684l0.024-0.035c-1.484 2.045-3.44 3.661-5.713 4.706l-0.090 0.037h0.014c0.533 0 1.067-0.028 1.593-0.078 2.256-0.796 4.178-2.049 5.735-3.658l0.004-0.004c1.457-1.507 2.526-3.398 3.041-5.507l0.017-0.083zM11.925 4.025l-2.83-2.46c-2.525 0.832-4.646 2.317-6.232 4.257l-0.019 0.024c-1.451 1.789-2.338 4.089-2.361 6.594l-0 0.005c0.037 2.777 1.12 5.294 2.872 7.182l-0.006-0.007c1.905 2.051 4.413 3.517 7.241 4.116l0.090 0.016c2.454-2.529 4.055-5.897 4.335-9.634l0.003-0.052c0.015-0.256 0.024-0.555 0.024-0.856 0-3.472-1.173-6.67-3.143-9.22l0.026 0.035zM31.388 14.386c-0.007-3.093-1.422-6.044-3.94-8.235-2.512-2.127-5.79-3.421-9.37-3.421-0.036 0-0.072 0-0.108 0l0.006-0c-1.643 0-3.271 0.263-4.807 0.782l17.323 15.040c0.564-1.225 0.894-2.657 0.896-4.166v-0.001z"></path>
</symbol>
<symbol id="icon-company2" viewBox="0 0 32 32">
<path fill="#afb1b8" style="fill: var(--color2, #afb1b8)" d="M14.222 1.803h-0.080l-0.388-0.012h-0.283c-0.018-0-0.039-0-0.060-0-0.26 0-0.519 0.007-0.776 0.020l0.036-0.002c-2.24 0.123-4.431 0.689-6.468 1.649l-0.265 0.129v13.625l0.622-0.209c1.995-0.718 4.297-1.147 6.695-1.175l0.013-0v1.791l-0.652 0.018h-0.049c-3.103 0.172-5.971 1.029-8.503 2.421l0.103-0.052v-17.483c1.38-0.817 2.977-1.482 4.667-1.911l0.127-0.027c1.352-0.364 2.905-0.577 4.506-0.585l0.005-0h0.265c1.123 0.004 2.21 0.149 3.247 0.42l-0.090-0.020v1.766c-0.627-0.155-1.371-0.273-2.132-0.33l-0.046-0.003h-0.043c-0.154-0.012-0.308-0.031-0.449-0.031zM17.323 3.606c0.348 0.022 0.754 0.035 1.163 0.035 1.701 0 3.351-0.219 4.922-0.631l-0.135 0.030c1.734-0.442 3.254-1.051 4.667-1.829l-0.101 0.051v17.163c-1.38 0.82-2.976 1.489-4.667 1.923l-0.127 0.028c-1.477 0.375-2.991 0.572-4.511 0.578-0.031 0-0.068 0-0.105 0-1.18 0-2.325-0.148-3.419-0.427l0.095 0.021v-17.274c0.639 0.156 1.396 0.274 2.17 0.33l0.046 0.003zM26.062 3.742l-0.622 0.209c-2.067 0.744-4.451 1.174-6.936 1.174-0.389 0-0.776-0.011-1.16-0.031l0.054 0.002-0.505-0.031v14.012l0.431 0.037c0.356 0.027 0.771 0.043 1.19 0.043 1.457 0 2.871-0.189 4.217-0.542l-0.115 0.026c1.218-0.313 2.275-0.707 3.277-1.195l-0.101 0.045 0.271-0.123v-13.625z"></path>
<path fill="#afb1b8" style="fill: var(--color2, #afb1b8)" d="M5.378 25.975c-0.168-0.171-0.401-0.278-0.66-0.278-0.013 0-0.025 0-0.037 0.001l0.002-0c-0.135 0-0.271 0.025-0.4 0.074-0.346 0.139-0.586 0.471-0.586 0.859 0 0.016 0 0.032 0.001 0.048l-0-0.002v2.338c0 0.16 0.025 0.326 0.092 0.474 0.062 0.123 0.135 0.228 0.234 0.314 0.092 0.080 0.203 0.135 0.32 0.166s0.234 0.049 0.351 0.049c0.536-0.010 0.966-0.447 0.966-0.984 0-0 0-0 0-0v0-0.258h-0.615v0.203c0.006 0.074 0 0.148-0.031 0.209-0.019 0.053-0.049 0.098-0.086 0.135v0c-0.069 0.053-0.157 0.085-0.252 0.086h-0c-0.012 0.002-0.027 0.003-0.041 0.003-0.102 0-0.192-0.049-0.248-0.125l-0.001-0.001c-0.054-0.084-0.086-0.187-0.086-0.297 0-0.006 0-0.012 0-0.018l-0 0.001v-2.178c0-0.123 0.025-0.24 0.080-0.345 0.055-0.087 0.151-0.144 0.26-0.144 0.012 0 0.025 0.001 0.037 0.002l-0.001-0c0.003-0 0.007-0 0.011-0 0.106 0 0.2 0.050 0.26 0.129l0.001 0.001c0.065 0.083 0.105 0.189 0.105 0.303 0 0.002 0 0.003-0 0.004v-0 0.209h0.603v-0.24c0-0.002 0-0.005 0-0.008 0-0.281-0.105-0.537-0.278-0.732l0.001 0.001zM9.003 25.951c-0.187-0.157-0.431-0.252-0.697-0.252-0.129 0-0.254 0.023-0.369 0.064l0.008-0.002c-0.123 0.043-0.228 0.105-0.32 0.185-0.105 0.098-0.185 0.209-0.24 0.332-0.062 0.142-0.092 0.295-0.086 0.455v2.234c-0.006 0.16 0.025 0.314 0.086 0.462 0.055 0.123 0.135 0.228 0.24 0.308 0.092 0.092 0.197 0.16 0.32 0.203 0.108 0.040 0.233 0.063 0.363 0.063s0.255-0.023 0.37-0.066l-0.007 0.002c0.38-0.131 0.648-0.486 0.648-0.904 0-0.022-0.001-0.044-0.002-0.066l0 0.003v-2.24c0.001-0.013 0.001-0.028 0.001-0.043 0-0.291-0.123-0.553-0.32-0.738l-0.001-0.001zM8.72 28.966c0.001 0.011 0.002 0.023 0.002 0.036 0 0.114-0.048 0.217-0.125 0.29l-0 0c-0.077 0.064-0.177 0.103-0.286 0.103s-0.209-0.039-0.287-0.104l0.001 0.001c-0.077-0.073-0.125-0.176-0.125-0.29 0-0.013 0.001-0.025 0.002-0.038l-0 0.002v-2.234c-0.001-0.011-0.002-0.023-0.002-0.036 0-0.114 0.048-0.217 0.125-0.29l0-0c0.077-0.064 0.177-0.103 0.286-0.103s0.209 0.039 0.287 0.104l-0.001-0.001c0.077 0.073 0.125 0.176 0.125 0.29 0 0.013-0.001 0.025-0.002 0.038l0-0.002v2.234zM13.766 29.969v-4.246h-0.591l-0.769 2.246h-0.012l-0.775-2.246h-0.578v4.24h0.603v-2.585h0.012l0.591 1.828h0.308l0.597-1.822h0.006v2.578h0.609zM17.206 26.031c-0.092-0.111-0.209-0.185-0.345-0.234-0.126-0.043-0.27-0.068-0.421-0.068-0.006 0-0.011 0-0.017 0h-0.898v4.24h0.603v-1.662h0.308c0.191 0.012 0.375-0.025 0.548-0.111 0.244-0.153 0.417-0.4 0.467-0.689l0.001-0.006c0.024-0.143 0.038-0.307 0.038-0.474 0-0.216-0.023-0.426-0.066-0.629l0.003 0.020c-0.042-0.154-0.119-0.287-0.222-0.394l0 0zM16.898 27.323c-0.006 0.074-0.025 0.148-0.062 0.215-0.037 0.062-0.086 0.123-0.154 0.148-0.078 0.039-0.171 0.062-0.269 0.062-0.005 0-0.010-0-0.015-0h-0.276v-1.446h0.308c0.098 0 0.185 0.012 0.277 0.055 0.062 0.031 0.111 0.086 0.142 0.154 0.030 0.069 0.048 0.149 0.049 0.233v0.579zM20.062 25.729h-0.492l-0.923 4.24h0.603l0.178-0.911h0.818l0.185 0.911h0.597l-0.954-4.24zM19.508 28.48l0.302-1.538h0.006l0.295 1.538h-0.603zM23.969 28.283h-0.012l-0.911-2.554h-0.578v4.24h0.603v-2.548h0.012l0.917 2.548h0.566v-4.246h-0.603v2.554zM27.662 25.729l-0.492 1.686h-0.006l-0.492-1.686h-0.634l0.831 2.449v1.785h0.603v-1.785l0.831-2.449h-0.64zM3.692 31.163h0.289v0.818h0.203v-0.818h0.289v-0.166h-0.782v0.166zM6.142 30.997l-0.382 0.985h0.209l0.080-0.222h0.394l0.080 0.222h0.215l-0.388-0.985h-0.209zM6.111 31.594l0.129-0.369 0.135 0.369h-0.265zM8.554 31.618h0.234v0.123c-0.063 0.052-0.145 0.085-0.234 0.086h-0c-0.005 0-0.011 0.001-0.017 0.001-0.078 0-0.147-0.036-0.192-0.092l-0-0c-0.047-0.066-0.074-0.148-0.074-0.236 0-0.008 0-0.016 0.001-0.023l-0 0.001c0-0.215 0.092-0.326 0.283-0.326 0.006-0.001 0.013-0.001 0.020-0.001 0.096 0 0.177 0.065 0.202 0.153l0 0.001 0.197-0.037c-0.043-0.191-0.185-0.289-0.418-0.289-0.006-0-0.012-0-0.019-0-0.125 0-0.24 0.047-0.327 0.124l0.001-0c-0.088 0.087-0.143 0.208-0.143 0.342 0 0.014 0.001 0.028 0.002 0.041l-0-0.002c0 0.135 0.037 0.271 0.123 0.369 0.088 0.092 0.211 0.149 0.347 0.149 0.010 0 0.020-0 0.030-0.001l-0.001 0c0.154 0 0.308-0.055 0.418-0.16v-0.388h-0.431v0.166zM11.028 30.997h-0.197v0.985h0.689v-0.166h-0.492v-0.818zM13.12 30.997h-0.203v0.985h0.203v-0.985zM15.163 31.655l-0.406-0.658h-0.191v0.985h0.185v-0.64l0.394 0.64h0.197v-0.985h-0.185v0.658zM17.009 31.551h0.492v-0.166h-0.492v-0.222h0.523v-0.166h-0.726v0.985h0.751v-0.166h-0.554v-0.265zM21.483 31.385h-0.388v-0.388h-0.197v0.985h0.197v-0.431h0.388v0.431h0.197v-0.985h-0.197v0.388zM23.342 31.551h0.492v-0.166h-0.492v-0.222h0.529v-0.166h-0.726v0.985h0.745v-0.166h-0.548v-0.265zM25.858 31.551c0.172-0.031 0.258-0.123 0.258-0.277 0.001-0.008 0.002-0.018 0.002-0.028 0-0.076-0.037-0.144-0.093-0.187l-0.001-0c-0.074-0.039-0.162-0.063-0.256-0.063-0.012 0-0.023 0-0.035 0.001l0.002-0h-0.418v0.985h0.197v-0.412h0.037c0.043 0 0.086 0.006 0.123 0.025 0.031 0.018 0.062 0.043 0.074 0.074l0.215 0.308h0.234l-0.123-0.185c-0.049-0.098-0.123-0.185-0.215-0.246zM25.662 31.415h-0.148v-0.246h0.154c0.068-0.006 0.142 0 0.203 0.018 0.031 0.023 0.051 0.059 0.051 0.099 0 0.043-0.022 0.081-0.056 0.103l-0 0c-0.050 0.016-0.108 0.026-0.168 0.026-0.012 0-0.025-0-0.037-0.001l0.002 0zM27.76 31.551h0.492v-0.166h-0.492v-0.222h0.529v-0.166h-0.726v0.985h0.745v-0.166h-0.548v-0.265z"></path>
</symbol>
<symbol id="icon-company1" viewBox="0 0 32 32">
<path fill="#afb1b8" style="fill: var(--color2, #afb1b8)" d="M6.128 0l4.766 4.514h-8.851v21.903h23.149v-8.374l4.766 4.507v-22.55h-23.83zM24.987 17.518l-13.542-12.807h13.542v12.8zM20.78 23.224h-15.074v-14.74h1.069v13.74h14.005v1.001zM9.266 29.345l-0.558 1.144-0.558-1.144h-0.456l0.817 1.532v0.885h0.415v-0.885l0.817-1.532h-0.477zM9.968 31.762l0.191-0.558h0.94l0.204 0.558h0.436l-0.919-2.417h-0.374l-0.919 2.417h0.443zM10.628 29.855l0.354 1.008h-0.701l0.347-1.008zM12.848 30.808c-0.055 0.084-0.088 0.187-0.088 0.298 0 0.001 0 0.001 0 0.002v-0c0 0.204 0.068 0.374 0.211 0.497 0.143 0.129 0.34 0.191 0.579 0.191s0.443-0.068 0.613-0.191l0.136 0.157h0.477l-0.361-0.415c0.136-0.191 0.204-0.436 0.204-0.735h-0.34c0 0.163-0.041 0.313-0.109 0.443l-0.463-0.545 0.163-0.129c0.116-0.082 0.204-0.163 0.252-0.252 0.047-0.078 0.074-0.171 0.074-0.271 0-0.154-0.065-0.292-0.169-0.389l-0-0c-0.108-0.097-0.252-0.157-0.409-0.157-0.007 0-0.014 0-0.020 0l0.001-0c-0.012-0.001-0.025-0.001-0.039-0.001-0.166 0-0.317 0.062-0.432 0.165l0.001-0.001c-0.106 0.107-0.171 0.254-0.171 0.416 0 0.012 0 0.023 0.001 0.034l-0-0.002c0 0.082 0.020 0.163 0.054 0.245s0.102 0.184 0.197 0.3c-0.141 0.094-0.26 0.207-0.358 0.337l-0.003 0.004zM13.937 31.34c-0.103 0.084-0.236 0.135-0.381 0.136h-0c-0.006 0-0.013 0.001-0.020 0.001-0.102 0-0.196-0.039-0.266-0.103l0 0c-0.067-0.066-0.109-0.157-0.109-0.259 0-0.005 0-0.010 0-0.014l-0 0.001c0-0.136 0.068-0.245 0.204-0.347l0.048-0.041 0.524 0.626zM13.508 30.264c-0.116-0.136-0.17-0.252-0.17-0.347 0-0.082 0.020-0.15 0.068-0.204 0.044-0.046 0.105-0.075 0.174-0.075 0.004 0 0.007 0 0.011 0l-0.001-0c0.075 0 0.136 0.020 0.184 0.068 0.048 0.041 0.068 0.095 0.068 0.157 0 0.095-0.034 0.177-0.102 0.238l-0.048 0.041-0.184 0.123zM17.443 31.585c0.17-0.15 0.266-0.347 0.286-0.613h-0.415c-0.020 0.177-0.075 0.3-0.157 0.374-0.088 0.075-0.204 0.109-0.374 0.109-0.006 0-0.013 0-0.021 0-0.16 0-0.302-0.080-0.387-0.203l-0.001-0.002c-0.095-0.136-0.143-0.34-0.143-0.599v-0.211c0-0.259 0.048-0.456 0.15-0.586 0.095-0.136 0.238-0.204 0.422-0.204 0.157 0 0.272 0.041 0.354 0.116s0.136 0.204 0.157 0.374h0.415c-0.012-0.242-0.117-0.457-0.279-0.612l-0-0c-0.161-0.136-0.371-0.219-0.601-0.219-0.016 0-0.032 0-0.049 0.001l0.002-0c-0.204 0-0.374 0.048-0.524 0.136-0.15 0.102-0.272 0.232-0.347 0.409-0.082 0.17-0.123 0.374-0.123 0.599v0.232c0 0.218 0.041 0.415 0.123 0.586s0.191 0.3 0.34 0.388c0.15 0.095 0.32 0.136 0.511 0.136 0.272 0 0.497-0.068 0.66-0.211zM19.915 31.244c0.082-0.184 0.123-0.388 0.123-0.626v-0.136c0-0.238-0.041-0.443-0.123-0.613-0.146-0.332-0.471-0.559-0.85-0.559-0.012 0-0.025 0-0.037 0.001l0.002-0c-0.191 0-0.368 0.048-0.517 0.143-0.157 0.095-0.272 0.238-0.354 0.415-0.082 0.184-0.129 0.388-0.129 0.626v0.136c0 0.232 0.048 0.436 0.129 0.613s0.204 0.313 0.354 0.409c0.157 0.095 0.334 0.143 0.524 0.143 0.204 0 0.374-0.048 0.531-0.136 0.15-0.102 0.272-0.238 0.347-0.415zM19.466 29.876c0.102 0.136 0.157 0.347 0.157 0.613v0.129c0 0.272-0.054 0.477-0.157 0.62-0.090 0.129-0.237 0.212-0.403 0.212-0.009 0-0.018-0-0.027-0.001l0.001 0c-0.006 0-0.012 0-0.019 0-0.169 0-0.318-0.083-0.409-0.21l-0.001-0.002c-0.099-0.158-0.159-0.35-0.159-0.556 0-0.022 0.001-0.044 0.002-0.066l-0 0.003v-0.136c0-0.266 0.054-0.463 0.157-0.613 0.091-0.125 0.237-0.205 0.402-0.205 0.009 0 0.019 0 0.028 0.001l-0.001-0c0.184 0 0.327 0.068 0.429 0.204z"></path>
</symbol>
<symbol id="icon-antenna" viewBox="0 0 30 32">
<path fill="#212121" style="fill: var(--color4, #212121)" d="M29.861 22.098l-8.443-8.503 0.937-4.617c0.242 0.091 0.498 0.142 0.759 0.146h0.005c0.006 0 0.014 0 0.022 0 1.192 0 2.158-0.966 2.158-2.158s-0.966-2.158-2.158-2.158c-1.192 0-2.158 0.966-2.158 2.158 0 0.259 0.046 0.507 0.129 0.737l-0.005-0.015-4.955 0.603-8.091-8.133c-0.097-0.098-0.231-0.159-0.379-0.16h-0c-0.137 0-0.274 0.055-0.37 0.155l-1.513 1.504c-0.21 0.21-0.21 0.549 0 0.754l0.814 0.823c-1.143 2.062-1.816 4.522-1.816 7.14 0 4.106 1.656 7.824 4.336 10.525l-0.001-0.001c0.046 0.046 0.091 0.073 0.146 0.101-0.032 0.183-0.050 0.366-0.050 0.549v6.185h-6.4c0 0 0 0 0 0-1.473 0-2.667 1.193-2.67 2.665v1.065c0 0.297 0.238 0.535 0.535 0.535h24.535c0.293 0 0.53-0.238 0.53-0.535v-1.065c-0.003-1.471-1.194-2.663-2.665-2.665h-6.4v-2.743c0.915 0.2 1.966 0.315 3.043 0.315 2.581 0 5.008-0.659 7.123-1.817l-0.077 0.039 0.818 0.823c0.096 0.101 0.233 0.16 0.375 0.16 0.137 0 0.274-0.059 0.375-0.155l1.509-1.509c0.21-0.206 0.21-0.544 0-0.75zM22.363 6.235c0.193-0.192 0.458-0.311 0.752-0.311 0.588 0 1.065 0.477 1.065 1.065s-0.476 1.064-1.063 1.065h-0c-0.001 0-0.001 0-0.002 0-0.588 0-1.065-0.477-1.065-1.065 0-0.297 0.122-0.566 0.318-0.759l0-0zM21.111 9.737l-0.599 2.944-1.175-1.179 1.774-1.765zM20.503 8.837l-1.92 1.906-1.486-1.49 3.406-0.416zM23.090 28.8c0.884 0 1.6 0.716 1.6 1.6v0 0.535h-23.465v-0.535c0-0.884 0.716-1.6 1.6-1.6v0h20.261zM15.625 26.665v1.070h-5.339v-1.070h5.335zM10.286 25.6v-4.055c0-1.294 1.198-2.345 2.665-2.345 1.472 0 2.67 1.051 2.67 2.345v4.055h-5.335zM16.686 23.904v-2.359c0-1.879-1.673-3.41-3.735-3.41-0.018-0-0.040-0-0.062-0-1.351 0-2.537 0.705-3.211 1.768l-0.009 0.016c-2.359-2.481-3.809-5.845-3.809-9.548 0-2.314 0.567-4.496 1.569-6.415l-0.036 0.077 18.606 18.711c-1.822 0.946-3.978 1.501-6.264 1.501-1.080 0-2.132-0.124-3.141-0.358l0.093 0.018zM27.977 23.218l-0.754-0.754-20.302-20.425 0.754-0.75 21.061 21.179-0.759 0.75z"></path>
<path fill="#2196f3" style="fill: var(--color3, #2196f3)" d="M12.96 20.265c-0.001 0-0.003 0-0.005 0-0.884 0-1.6 0.716-1.6 1.6 0 0.882 0.714 1.597 1.595 1.6h0.005c0.001 0 0.001 0 0.002 0 0.884 0 1.6-0.716 1.6-1.6s-0.715-1.599-1.598-1.6h-0zM13.335 22.245c-0.097 0.096-0.23 0.155-0.377 0.155-0.295 0-0.535-0.239-0.535-0.535s0.238-0.533 0.532-0.535h0c0.294 0.001 0.533 0.24 0.533 0.535 0 0.148-0.060 0.283-0.158 0.379l-0 0z"></path>
</symbol>
<symbol id="icon-twitter" viewBox="0 0 32 32">
<path fill="#afb1b8" style="fill: var(--color2, #afb1b8)" d="M32 6.080c-1.184 0.528-2.464 0.864-3.776 1.040 1.36-0.816 2.4-2.080 2.88-3.632-1.28 0.752-2.672 1.28-4.16 1.6-1.202-1.298-2.915-2.107-4.817-2.107-3.623 0-6.56 2.937-6.56 6.56 0 0.538 0.065 1.060 0.187 1.56l-0.009-0.045c-5.462-0.281-10.265-2.883-13.477-6.83l-0.027-0.034c-0.558 0.949-0.887 2.089-0.887 3.307 0 2.26 1.134 4.255 2.865 5.446l0.022 0.014c-1.040 0-2.080-0.32-2.96-0.8v0.064c0 3.2 2.272 5.84 5.264 6.448-0.518 0.147-1.113 0.232-1.728 0.232-0.442 0-0.873-0.044-1.29-0.127l0.042 0.007c0.878 2.623 3.284 4.493 6.136 4.56l0.008 0c-2.221 1.763-5.066 2.828-8.159 2.828-0.547 0-1.087-0.033-1.617-0.098l0.064 0.006c2.826 1.846 6.286 2.944 10.003 2.944 0.022 0 0.043-0 0.065-0h-0.003c12.080 0 18.672-10 18.672-18.672 0-0.288 0-0.576-0.032-0.848 1.312-0.928 2.4-2.080 3.296-3.408z"></path>
</symbol>
<symbol id="icon-facebook" viewBox="0 0 32 32">
<path fill="#afb1b8" style="fill: var(--color2, #afb1b8)" d="M21.328 5.312h2.928v-5.088c-0.512-0.064-2.24-0.224-4.256-0.224-4.224 0-7.104 2.656-7.104 7.52v4.48h-4.64v5.68h4.64v14.32h5.696v-14.304h4.464l0.704-5.696h-5.168v-3.92c0-1.648 0.448-2.768 2.736-2.768z"></path>
</symbol>
<symbol id="icon-mail" viewBox="0 0 32 32">
<path fill="#757575" style="fill: var(--color1, #757575)" d="M29 4h-26c-1.66 0-3 1.34-3 3v18c0 1.66 1.34 3 3 3h26c1.66 0 3-1.34 3-3v-18c0-1.66-1.34-3-3-3zM29 6c0.002-0 0.005-0 0.008-0 0.142 0 0.276 0.029 0.398 0.083l-0.006-0.003-13.4 11.6-13.4-11.6c0.116-0.051 0.25-0.080 0.392-0.080 0.003 0 0.006 0 0.008 0h26zM29 26h-26c-0.552 0-1-0.448-1-1v0-16.8l13.34 11.56c0.175 0.154 0.407 0.249 0.66 0.249s0.485-0.094 0.661-0.25l-0.001 0.001 13.34-11.56v16.8c0 0.552-0.448 1-1 1v0z"></path>
</symbol>
<symbol id="icon-diagram" viewBox="0 0 32 32">
<path fill="#2196f3" style="fill: var(--color3, #2196f3)" d="M14.926 14.967h1.065v4.795h-1.065v-4.8zM19.191 17.097h1.065v2.665h-1.065v-2.665zM10.661 18.697h1.065v1.065h-1.065v-1.065zM7.461 18.162h1.070v1.6h-1.070v-1.6z"></path>
<path fill="#212121" style="fill: var(--color4, #212121)" d="M1.6 28.293h25.586c0.884 0 1.6-0.716 1.6-1.6v0-2.135c0-0.884-0.716-1.6-1.6-1.6v0h-0.535v-13.285l3.031-2.871c0.207 0.104 0.45 0.164 0.708 0.164 0.889 0 1.609-0.72 1.609-1.609s-0.72-1.609-1.609-1.609c-0.889 0-1.609 0.72-1.609 1.609 0 0.247 0.056 0.482 0.156 0.691l-0.004-0.010-2.281 2.162v-1.23c0-0.884-0.716-1.6-1.6-1.6v0h-21.321c-0.884 0-1.6 0.716-1.6 1.6v0 15.995h-0.53c-0.884 0-1.6 0.716-1.6 1.6v0 2.13c0 0.884 0.716 1.6 1.6 1.6v0zM30.386 4.837c0.015-0.001 0.032-0.002 0.049-0.002 0.295 0 0.535 0.239 0.535 0.535s-0.239 0.535-0.535 0.535c-0.017 0-0.035-0.001-0.052-0.002l0.002 0c-0.273-0.026-0.485-0.255-0.485-0.533s0.212-0.506 0.483-0.532l0.002-0zM3.2 6.967c0-0.293 0.238-0.53 0.53-0.53h21.321c0.297 0 0.535 0.238 0.535 0.53v2.24l-1.065 1.015v-2.185c0-0.297-0.238-0.535-0.535-0.535h-19.186c-0.293 0-0.53 0.238-0.53 0.535v13.326c0 0.293 0.238 0.53 0.53 0.53h19.191c0.297 0 0.535-0.238 0.535-0.53v-9.673l1.065-1.010v12.283h-22.391v-15.995zM8 13.897c-0.004-0-0.009-0-0.013-0-0.884 0-1.6 0.716-1.6 1.6s0.716 1.6 1.6 1.6c0.434 0 0.827-0.173 1.115-0.453l-0 0 1.856 0.933c0.215 0.105 0.475 0.055 0.635-0.123l3.936-4.434 3.872 2.903c0.21 0.155 0.503 0.137 0.686-0.037l3.369-3.191v8.137h-18.126v-12.27h18.126v2.661l-3.771 3.57-3.904-2.926c-0.088-0.067-0.2-0.107-0.322-0.107-0.159 0-0.302 0.070-0.4 0.18l-0 0.001-3.991 4.494-1.495-0.75c0.014-0.064 0.018-0.128 0.023-0.192 0-0.884-0.716-1.6-1.6-1.6v0zM8.53 15.497c0 0.295-0.239 0.535-0.535 0.535s-0.535-0.239-0.535-0.535v0c0-0.295 0.239-0.535 0.535-0.535s0.535 0.239 0.535 0.535v0zM11.73 24.027h5.321v0.53c0 0.297-0.238 0.535-0.53 0.535h-4.265c-0.293 0-0.535-0.238-0.535-0.535v-0.53zM1.061 24.558c0-0.293 0.238-0.53 0.535-0.53h9.061v0.53c0 0.884 0.716 1.6 1.6 1.6v0h4.265c0.884 0 1.6-0.716 1.6-1.6v0-0.53h9.061c0.293 0 0.53 0.238 0.53 0.53v2.135c0 0.293-0.238 0.53-0.53 0.53h-25.582c-0.297 0-0.535-0.238-0.535-0.53v-2.135z"></path>
</symbol>
<symbol id="icon-clock" viewBox="0 0 32 32">
<path fill="#212121" style="fill: var(--color4, #212121)" d="M31.296 15.301c-0.001-8.452-6.853-15.303-15.305-15.303s-15.305 6.852-15.305 15.305c0 6.79 4.422 12.548 10.543 14.55l0.108 0.031c0.057 0.017 0.123 0.027 0.191 0.027 0.125 0 0.242-0.034 0.343-0.093l-0.003 0.002c0.137-0.082 0.233-0.206 0.283-0.357l3.863-12.251c1.048-0.009 1.895-0.861 1.895-1.911 0-1.055-0.856-1.911-1.911-1.911-0.3 0-0.584 0.069-0.836 0.192l0.011-0.005-5.102-5.106c-0.112-0.098-0.259-0.158-0.421-0.158-0.353 0-0.64 0.287-0.64 0.64 0 0.16 0.059 0.307 0.156 0.419l-0.001-0.001 5.106 5.111c-0.121 0.241-0.192 0.526-0.192 0.826 0 0.601 0.283 1.136 0.723 1.479l0.004 0.003-3.685 11.671c-5.408-2.035-9.186-7.165-9.186-13.177 0-7.756 6.287-14.043 14.043-14.043s14.043 6.287 14.043 14.043c0 5.688-3.381 10.586-8.243 12.793l-0.088 0.036-0.398-1.874c-0.066-0.289-0.32-0.502-0.625-0.502-0.162 0-0.31 0.060-0.423 0.159l0.001-0.001-3.84 3.429c-0.127 0.117-0.207 0.285-0.207 0.471 0 0.282 0.182 0.521 0.435 0.607l0.005 0.001 4.901 1.563c0.057 0.019 0.123 0.029 0.192 0.029 0.353 0 0.64-0.287 0.64-0.64 0-0.046-0.005-0.091-0.014-0.134l0.001 0.004-0.393-1.838c5.529-2.374 9.33-7.772 9.33-14.057 0-0.011 0-0.022-0-0.034v0.002zM15.991 14.661c0.353 0 0.64 0.287 0.64 0.64s-0.287 0.64-0.64 0.64v0c-0.353 0-0.64-0.287-0.64-0.64s0.287-0.64 0.64-0.64v0zM18.094 29.527l2.185-1.947 0.599 2.839-2.789-0.891z"></path>
<path fill="#2196f3" style="fill: var(--color3, #2196f3)" d="M15.355 3.186v1.275c-0.001 0.016-0.002 0.035-0.002 0.054 0 0.353 0.287 0.64 0.64 0.64s0.64-0.287 0.64-0.64c0-0.019-0.001-0.038-0.002-0.056l0 0.002v-1.28c0-0.353-0.287-0.64-0.64-0.64s-0.64 0.287-0.64 0.64v0zM3.877 14.665c-0.329 0.029-0.586 0.303-0.586 0.638s0.257 0.609 0.584 0.638l0.002 0h1.275c0.353 0 0.64-0.287 0.64-0.64s-0.287-0.64-0.64-0.64h-1.28zM28.11 15.941c0.353 0 0.64-0.287 0.64-0.64s-0.287-0.64-0.64-0.64h-1.28c-0.353 0-0.64 0.287-0.64 0.64s0.287 0.64 0.64 0.64h1.28z"></path>
</symbol>
<symbol id="icon-astronaut" viewBox="0 0 32 32">
<path fill="#2196f3" style="fill: var(--color3, #2196f3)" d="M31.973 4.526c-0.059-0.192-0.229-0.334-0.43-0.366l-1.911-0.274-0.855-1.737c-0.178-0.361-0.777-0.361-0.955 0l-0.85 1.737-1.911 0.274c-0.262 0.038-0.46 0.261-0.46 0.53 0 0.151 0.063 0.287 0.163 0.385l0 0 1.385 1.344-0.325 1.902c-0.005 0.026-0.007 0.056-0.007 0.087 0 0.295 0.239 0.535 0.535 0.535 0.089 0 0.174-0.022 0.248-0.061l-0.003 0.001 1.71-0.896 1.705 0.896c0.072 0.039 0.158 0.062 0.25 0.062 0.295 0 0.535-0.239 0.535-0.535 0-0.032-0.003-0.063-0.008-0.093l0 0.003-0.329-1.902 1.385-1.349c0.146-0.137 0.197-0.352 0.137-0.549zM29.513 5.851c-0.128 0.123-0.183 0.297-0.155 0.471l0.192 1.115-1.001-0.526c-0.072-0.039-0.158-0.062-0.249-0.062s-0.177 0.023-0.252 0.064l0.003-0.001-1.001 0.526 0.192-1.115c0.032-0.174-0.027-0.347-0.151-0.471l-0.814-0.791 1.12-0.16c0.174-0.027 0.325-0.137 0.402-0.293l0.503-1.015 0.498 1.015c0.078 0.155 0.229 0.265 0.402 0.293l1.12 0.16-0.809 0.791zM26.135 20.526h-1.070v1.065h1.070v-1.070zM26.135 22.656h-1.070v1.065h1.070v-1.065zM27.2 21.591h-1.065v1.065h1.065v-1.065zM25.065 21.591h-1.065v1.065h1.065v-1.065zM22.4 26.391h-1.065v1.065h1.065v-1.065zM22.4 28.526h-1.065v1.065h1.065v-1.070zM23.465 27.456h-1.065v1.065h1.065v-1.065zM21.335 27.456h-1.070v1.065h1.070v-1.065zM16 24.256h-1.065v1.065h1.065v-1.065zM16 26.391h-1.065v1.065h1.065v-1.065zM17.065 25.326h-1.065v1.065h1.065v-1.070zM14.935 25.326h-1.070v1.065h1.070v-1.070zM5.865 6.126h-1.065v1.065h1.065v-1.070zM5.865 8.256h-1.065v1.065h1.065v-1.065zM6.935 7.191h-1.070v1.065h1.070v-1.065zM4.8 7.191h-1.065v1.065h1.065v-1.065z"></path>
<path fill="#212121" style="fill: var(--color4, #212121)" d="M24.713 14.158c-0.28-0.376-0.699-0.636-1.179-0.703l-0.009-0.001c-0.076-0.012-0.164-0.018-0.253-0.018-0.411 0-0.789 0.139-1.090 0.373l0.004-0.003-1.248 0.96-1.902 1.417-1.358-0.539c2.423-1.088 4.114-3.506 4.114-6.322 0-3.822-3.122-6.93-6.962-6.93s-6.958 3.109-6.958 6.93c0 1.39 0.411 2.674 1.12 3.762l-2.77-0.027-0.023 0.005c-0.055 0-0.105 0.014-0.155 0.032l-0.037 0.014-0.023 0.005-3.232 1.6-1.893 0.91c-0.506 0.32-0.837 0.877-0.837 1.511 0 0.985 0.798 1.783 1.783 1.783 0.303 0 0.588-0.075 0.838-0.209l-0.010 0.005 1.385-0.736 2.263-1.17 1.358-0.009-6.779 6.757c-0.306 0.299-0.496 0.716-0.496 1.177s0.19 0.878 0.495 1.177l0 0c0.302 0.302 0.719 0.488 1.179 0.488s0.878-0.187 1.179-0.488v0l1.307-1.312 1.742-1.298 0.901 0.896-1.76 1.755-1.339 1.33c-0.307 0.299-0.498 0.717-0.498 1.179s0.191 0.88 0.498 1.179l0 0c0.302 0.302 0.719 0.488 1.179 0.488s0.878-0.187 1.179-0.488v0l3.483-3.47 1.015-1.006h-0.005l0.018-0.018 5.166-5.659 3.474 0.498c0.019 0.003 0.041 0.004 0.063 0.004 0.071 0 0.139-0.015 0.201-0.042l-0.003 0.001 0.050-0.023c0.018-0.009 0.041-0.014 0.059-0.027l3.214-2.13 0.027-0.032 0.041-0.023 1.271-1.193c0.347-0.326 0.562-0.788 0.562-1.3 0-0.401-0.132-0.771-0.355-1.068l0.003 0.005zM2.13 17.769c-0.109 0.071-0.243 0.113-0.386 0.113-0.396 0-0.716-0.321-0.716-0.716 0-0.252 0.13-0.474 0.327-0.602l0.003-0.002 1.317-0.631 0.315 0.923 0.133 0.389-0.992 0.526zM5.627 15.941l-1.55 0.8-0.256-0.741-0.183-0.535 2.030-1.006-0.041 1.486zM20.727 9.326c0 0.919-0.219 1.783-0.599 2.56l-4.183-1.897c-0.042-0.576-0.341-1.074-0.78-1.386l-0.006-0.004 1.463-4.859c2.377 0.754 4.105 2.971 4.105 5.586zM8.937 9.326c0.011-3.243 2.643-5.868 5.888-5.868 0.266 0 0.528 0.018 0.784 0.052l-0.030-0.003-1.435 4.754-0.055-0.005c0 0 0 0-0 0-1.032 0-1.869 0.834-1.874 1.865v0.001c0.012 1.026 0.847 1.852 1.874 1.852 0.687 0 1.287-0.369 1.614-0.92l0.005-0.009 3.858 1.755c-1.085 1.458-2.804 2.393-4.741 2.393-3.245 0-5.878-2.624-5.893-5.866v-0.001zM14.894 10.126c0 0.446-0.361 0.807-0.807 0.807s-0.807-0.361-0.807-0.807v0c0-0.439 0.366-0.8 0.809-0.8s0.805 0.361 0.805 0.8zM2.469 25.147c-0.233 0.233-0.617 0.229-0.855 0-0.109-0.108-0.177-0.257-0.177-0.423s0.068-0.315 0.177-0.423l0.96-0.96 0.855 0.85-0.965 0.951zM5.682 28.878c-0.233 0.238-0.617 0.238-0.855 0-0.108-0.108-0.174-0.256-0.174-0.421s0.067-0.313 0.174-0.421v0l0.96-0.96 0.855 0.846-0.96 0.96zM9.166 25.413l-1.769 1.76-0.85-0.85 1.765-1.751c0.041-0.046 0.064-0.091 0.091-0.137l0.023-0.046c0.018-0.037 0.023-0.082 0.027-0.123 0-0.027 0.014-0.046 0.014-0.073 0-0.037-0.014-0.073-0.018-0.105l-0.018-0.096c-0.023-0.050-0.055-0.091-0.091-0.137l-0.027-0.041-1.609-1.6c-0.014-0.018-0.037-0.023-0.055-0.037-0.032-0.023-0.059-0.046-0.091-0.059-0.026-0.012-0.056-0.023-0.088-0.031l-0.003-0.001c-0.029-0.010-0.063-0.018-0.098-0.023l-0.003-0c-0.032 0-0.064 0-0.096 0.009-0.037 0-0.069 0.009-0.105 0.018-0.032 0.009-0.064 0.027-0.091 0.046-0.023 0.009-0.046 0.014-0.064 0.027l-1.774 1.326-0.901-0.901 2.4-2.386 4.361 4.293-0.928 0.914zM15.982 18.395h-0.046c-0.007-0-0.016-0.001-0.025-0.001-0.137 0-0.262 0.052-0.355 0.138l0-0-0.041 0.032-4.699 5.143-4.325-4.251 2.834-2.821c0.098-0.097 0.158-0.231 0.158-0.379 0-0.295-0.239-0.535-0.535-0.535-0.002 0-0.005 0-0.007 0h0l-2.217 0.014 0.027-1.609 3.104 0.027c1.263 1.296 3.026 2.099 4.977 2.099 0.455 0 0.899-0.044 1.33-0.127l-0.044 0.007c0.037 0.032 0.078 0.064 0.128 0.087l2.409 0.96 0.151 0.759 0.183 0.882-3.008-0.425zM20.023 18.574l-0.311-1.559 1.445-1.079 0.379 0.503 0.567 0.75-2.080 1.385zM23.781 15.739l-0.841 0.786-0.928-1.234 0.827-0.64c0.122-0.093 0.276-0.149 0.443-0.149 0.037 0 0.074 0.003 0.11 0.008l-0.004-0.001c0.352 0.050 0.62 0.349 0.62 0.711 0 0.206-0.087 0.392-0.226 0.523l-0 0z"></path>
<path fill="#212121" style="fill: var(--color4, #212121)" d="M13.6 18.546l-2.139-2.135c-0.097-0.096-0.23-0.156-0.377-0.156s-0.28 0.059-0.377 0.156l0-0-2.144 2.135c-0.096 0.097-0.156 0.23-0.156 0.377s0.059 0.28 0.156 0.377l-0-0 2.144 2.135c0.097 0.096 0.23 0.156 0.377 0.156s0.28-0.059 0.377-0.156l-0 0 2.139-2.135c0.096-0.097 0.156-0.23 0.156-0.377s-0.059-0.28-0.156-0.377l0 0zM11.086 20.302l-1.394-1.376 1.385-1.381 1.39 1.381-1.39 1.381zM17.166 5.074l-0.261 1.033c0.073 0.018 1.737 0.453 1.737 2.149h1.070c0-2.016-1.669-2.967-2.546-3.186zM19.712 9.326h-1.070v1.065h1.070v-1.070z"></path>
</symbol>
</defs>
</svg>
